File

File size : 67.0 MiB
Duration : 4mn 29s
Overall bit rate : 2 087 Kbps
Encoded date : UTC 2009-07-16 06:28:54
Writing application : mkvmerge v2.9.7 ('Tenderness')
Writing library : libebml v0.7.7 + libmatroska v0.8.1

Video

Format profile : Main@L5.1
Format settings, CABAC : Yes
Format settings, ReFrames : 3 frames
Muxing mode : Container profile=Unknown@5.1
Bit rate : 1 726 Kbps
Width : 624 pixels
Height : 368 pixels
Display aspect ratio : 1.696
Frame rate : 23.976 fps
Scan type : Progressive
Bits/(Pixel*Frame) : 0.313
Stream size : 55.3 MiB (83%)
Writing library : x264 core 57 svn-709C
Encoding settings : cabac=1 / ref=3 / deblock=1:0:0 /
analyse=0x1:0x131 / me=hex / fpel_cmp=sad / subme=6 / me-prepass=0 /
brdo=0 / mixed_ref=1 / me_range=16 / chroma_me=1 / trellis=1 /
8x8dct=0 / cqm=0 / deadzone=21,11 / chroma_qp_offset=0 / threads=1 /
nr=0 / decimate=1 / mbaff=0 / bframes=0 / keyint=250 / keyint_min=25 /
scenecut=40 / rc=cqp / qp=21 / ip_ratio=1.40

Audio

Bit rate mode : Constant
Bit rate : 320 Kbps
Channel(s) : 2 channels
Sampling rate : 44.1 KHz
Resolution : 16 bits
Video delay : 1s 500ms
Stream size : 10.3 MiB (15%)
Writing library : LAME3.97
Encoding settings : -m j -V 4 -q 3 -lowpass 20.5



Screenshots:
 
http://i18.photobucket.com/albums/b116/mattlb0619/mariah_mv/byebye/snapshot20090716202628.jpg 
http://i18.photobucket.com/albums/b116/mattlb0619/mariah_mv/byebye/snapshot20090716202657.jpg 
http://i18.photobucket.com/albums/b116/mattlb0619/mariah_mv/byebye/snapshot20090716202710.jpg 
http://i18.photobucket.com/albums/b116/mattlb0619/mariah_mv/byebye/thumbs20090716202714.jpg